<svg width="19" height="20" viewBox="0 0 19 20" fill="none" xmlns="http://www.w3.org/2000/svg">
<g clip-path="url(#clip0_82_48)">
<path d="M2.36578 5.00016C2.36578 4.55814 2.52467 4.13421 2.8075 3.82165C3.09033 3.50909 3.47392 3.3335 3.8739 3.3335H15.9388C16.3388 3.3335 16.7224 3.50909 17.0052 3.82165C17.288 4.13421 17.4469 4.55814 17.4469 5.00016V15.0002C17.4469 15.4422 17.288 15.8661 17.0052 16.1787C16.7224 16.4912 16.3388 16.6668 15.9388 16.6668H3.8739C3.47392 16.6668 3.09033 16.4912 2.8075 16.1787C2.52467 15.8661 2.36578 15.4422 2.36578 15.0002V5.00016Z" stroke="white" stroke-width="2" stroke-linecap="round" stroke-linejoin="round"/>
<path d="M2.36578 6.6665L8.02197 11.6673C8.55681 12.1403 9.22139 12.3979 9.90636 12.3979C10.5913 12.3979 11.2559 12.1403 11.7907 11.6673L17.4469 6.6665" stroke="white" stroke-width="2" stroke-linecap="round" stroke-linejoin="round"/>
</g>
<defs>
<clipPath id="clip0_82_48">
<rect width="18.0974" height="20" fill="white" transform="translate(0.857666)"/>
</clipPath>
</defs>
</svg>
