<svg width="37" height="40" viewBox="0 0 37 40" fill="none" xmlns="http://www.w3.org/2000/svg">
<g clip-path="url(#clip0_84_56)">
<path fill-rule="evenodd" clip-rule="evenodd" d="M0.857666 20.1117C0.857666 30.055 7.35717 38.3233 15.8577 40V25.555H11.3577V20H15.8577V15.555C15.8577 10.555 18.7572 7.77833 22.8582 7.77833C24.1572 7.77833 25.5582 8 26.8572 8.22167V13.3333H24.5577C22.3572 13.3333 21.8577 14.555 21.8577 16.1117V20H26.6577L25.8582 25.555H21.8577V40C30.3582 38.3233 36.8577 30.0567 36.8577 20.1117C36.8577 9.05 28.7577 0 18.8577 0C8.95767 0 0.857666 9.05 0.857666 20.1117Z" fill="white"/>
</g>
<defs>
<clipPath id="clip0_84_56">
<rect width="36" height="40" fill="white" transform="translate(0.857666)"/>
</clipPath>
</defs>
</svg>
