<svg width="19" height="20" viewBox="0 0 19 20" fill="none" xmlns="http://www.w3.org/2000/svg">
<g clip-path="url(#clip0_84_52)">
<path d="M8.81598 5.20019L6.26501 1.94602C5.97092 1.57102 5.43177 1.57269 5.09018 1.95102L2.9924 4.27352C2.36804 4.96435 2.18933 5.99019 2.55052 6.81269C4.70834 11.7502 8.31155 15.7378 12.7763 18.1294C13.5198 18.5285 14.4473 18.331 15.0716 17.6402L17.189 15.296C17.5321 14.9169 17.5329 14.3177 17.1905 13.9927L14.2346 11.1885C13.9255 10.8952 13.4451 10.9335 13.1352 11.2769L12.1067 12.4152C12.054 12.4762 11.9847 12.5164 11.9094 12.5296C11.8341 12.5429 11.7569 12.5284 11.6897 12.4885C10.0085 11.4186 8.61389 9.87538 7.64795 8.01602C7.61177 7.94165 7.59867 7.85621 7.61066 7.77282C7.62265 7.68942 7.65906 7.61268 7.7143 7.55435L8.73982 6.42019C9.05049 6.07519 9.08443 5.54185 8.81598 5.19935V5.20019Z" stroke="white" stroke-width="2" stroke-linecap="round" stroke-linejoin="round"/>
</g>
<defs>
<clipPath id="clip0_84_52">
<rect width="18.0974" height="20" fill="white" transform="translate(0.857666)"/>
</clipPath>
</defs>
</svg>
