<svg width="37" height="40" viewBox="0 0 37 40" fill="none" xmlns="http://www.w3.org/2000/svg">
<g clip-path="url(#clip0_84_62)">
<path fill-rule="evenodd" clip-rule="evenodd" d="M18.8577 0C8.92017 0 0.857666 8.95833 0.857666 20C0.857666 31.0417 8.92017 40 18.8577 40C28.7757 40 36.8577 31.0417 36.8577 20C36.8577 8.95833 28.7757 0 18.8577 0ZM30.7467 9.21833C32.9629 12.2172 34.1893 15.9682 34.2222 19.8483C33.7152 19.74 28.6392 18.59 23.5242 19.3067C23.4057 19.0233 23.3082 18.72 23.1912 18.4167C22.873 17.5823 22.5349 16.7576 22.1772 15.9433C27.8382 13.3833 30.4152 9.69667 30.7467 9.21833ZM18.8577 2.95167C22.7622 2.95167 26.3352 4.57667 29.0487 7.245C28.7757 7.67833 26.4522 11.1283 20.9862 13.405C18.4662 8.265 15.6762 4.055 15.2457 3.405C16.4297 3.09781 17.6418 2.94512 18.8577 2.95V2.95167ZM12.3177 4.555C12.7272 5.16333 15.4602 9.39333 18.0177 14.425C10.8327 16.5517 4.48767 16.5083 3.80517 16.5083C4.80117 11.215 8.02317 6.81167 12.3177 4.555ZM3.47367 20.0217V19.5017C4.13817 19.5233 11.5947 19.6317 19.2687 17.0717C19.7172 18.0267 20.1267 19.0017 20.5167 19.9783C20.3217 20.0433 20.1072 20.1083 19.9122 20.1733C11.9862 23.015 7.76817 30.78 7.41717 31.4317C4.87828 28.3009 3.47337 24.2359 3.47367 20.0217ZM18.8577 37.0933C15.3042 37.0933 12.0252 35.7483 9.42867 33.4933C9.70167 32.8633 12.8247 26.1817 21.4932 22.82C21.5322 22.7983 21.5532 22.7983 21.5907 22.7767C23.7582 29.0017 24.6357 34.23 24.8712 35.7267C23.0157 36.6167 20.9862 37.0933 18.8577 37.0933ZM27.4287 34.165C27.2727 33.1233 26.4522 28.135 24.4407 21.995C29.2632 21.15 33.4797 22.5383 34.0077 22.7333C33.3432 27.4833 30.8832 31.5833 27.4287 34.165Z" fill="white"/>
</g>
<defs>
<clipPath id="clip0_84_62">
<rect width="36" height="40" fill="white" transform="translate(0.857666)"/>
</clipPath>
</defs>
</svg>
