<svg width="37" height="40" viewBox="0 0 37 40" fill="none" xmlns="http://www.w3.org/2000/svg">
<path fill-rule="evenodd" clip-rule="evenodd" d="M15.0012 14.9485H20.5722V18.0318C21.3747 16.2585 23.4327 14.6652 26.5242 14.6652C32.4507 14.6652 33.8577 18.1952 33.8577 24.6718V36.6668H27.8577V26.1468C27.8577 22.4585 27.0552 20.3785 25.0122 20.3785C22.1787 20.3785 21.0012 22.6202 21.0012 26.1452V36.6668H15.0012V14.9485ZM4.71267 36.3835H10.7127V14.6652H4.71267V36.3835ZM11.5722 7.5835C11.5724 8.14229 11.4727 8.69555 11.2787 9.21114C11.0848 9.72673 10.8006 10.1944 10.4427 10.5868C9.71727 11.3879 8.73538 11.8363 7.71267 11.8335C6.69175 11.8327 5.71213 11.3855 4.98567 10.5885C4.62898 10.1947 4.34574 9.72654 4.15218 9.21088C3.95862 8.69523 3.85853 8.1422 3.85767 7.5835C3.85767 6.45516 4.26267 5.37516 4.98717 4.5785C5.71299 3.78043 6.69303 3.333 7.71417 3.3335C8.73717 3.3335 9.71817 3.78183 10.4427 4.5785C11.1657 5.37516 11.5722 6.45516 11.5722 7.5835Z" fill="white"/>
</svg>
