<svg width="37" height="40" viewBox="0 0 37 40" fill="none" xmlns="http://www.w3.org/2000/svg">
<path fill-rule="evenodd" clip-rule="evenodd" d="M12.0552 1.7765C13.8147 1.6865 14.3757 1.6665 18.8577 1.6665C23.3397 1.6665 23.9007 1.68817 25.6587 1.7765C27.4167 1.86484 28.6167 2.1765 29.6667 2.62817C30.7662 3.08984 31.7637 3.8115 32.5887 4.74484C33.4287 5.65984 34.0767 6.7665 34.4907 7.98984C34.8987 9.1565 35.1777 10.4898 35.2587 12.4398C35.3397 14.3982 35.3577 15.0215 35.3577 19.9998C35.3577 24.9798 35.3382 25.6032 35.2587 27.5582C35.1792 29.5082 34.8987 30.8415 34.4907 32.0082C34.0767 33.2317 33.4276 34.3402 32.5887 35.2565C31.7637 36.1898 30.7662 36.9098 29.6667 37.3698C28.6167 37.8232 27.4167 38.1332 25.6617 38.2232C23.9007 38.3132 23.3397 38.3332 18.8577 38.3332C14.3757 38.3332 13.8147 38.3115 12.0552 38.2232C10.3002 38.1348 9.10017 37.8232 8.05017 37.3698C6.94905 36.9098 5.9514 36.1886 5.12667 35.2565C4.28724 34.341 3.63764 33.233 3.22317 32.0098C2.81667 30.8432 2.53767 29.5098 2.45667 27.5598C2.37567 25.6015 2.35767 24.9782 2.35767 19.9998C2.35767 15.0198 2.37717 14.3965 2.45667 12.4432C2.53617 10.4898 2.81667 9.1565 3.22317 7.98984C3.63825 6.76664 4.28834 5.65869 5.12817 4.74317C5.95173 3.81067 6.94837 3.08891 8.04867 2.62817C9.09867 2.1765 10.2987 1.8665 12.0537 1.7765H12.0552ZM25.5252 5.0765C23.7852 4.98817 23.2632 4.96984 18.8577 4.96984C14.4522 4.96984 13.9302 4.98817 12.1902 5.0765C10.5807 5.15817 9.70767 5.4565 9.12567 5.70817C8.35617 6.0415 7.80567 6.4365 7.22817 7.07817C6.68073 7.66992 6.25944 8.39031 5.99517 9.1865C5.76867 9.83317 5.50017 10.8032 5.42667 12.5915C5.34717 14.5248 5.33067 15.1048 5.33067 19.9998C5.33067 24.8948 5.34717 25.4748 5.42667 27.4082C5.50017 29.1965 5.76867 30.1665 5.99517 30.8132C6.25917 31.6082 6.68067 32.3298 7.22817 32.9215C7.76067 33.5298 8.41017 33.9982 9.12567 34.2915C9.70767 34.5432 10.5807 34.8415 12.1902 34.9232C13.9302 35.0115 14.4507 35.0298 18.8577 35.0298C23.2647 35.0298 23.7852 35.0115 25.5252 34.9232C27.1347 34.8415 28.0077 34.5432 28.5897 34.2915C29.3592 33.9582 29.9097 33.5632 30.4872 32.9215C31.0347 32.3298 31.4562 31.6082 31.7202 30.8132C31.9467 30.1665 32.2152 29.1965 32.2887 27.4082C32.3682 25.4748 32.3847 24.8948 32.3847 19.9998C32.3847 15.1048 32.3682 14.5248 32.2887 12.5915C32.2152 10.8032 31.9467 9.83317 31.7202 9.1865C31.4202 8.3315 31.0647 7.71984 30.4872 7.07817C29.9546 6.46996 29.3062 6.00186 28.5897 5.70817C28.0077 5.4565 27.1347 5.15817 25.5252 5.0765ZM16.7502 25.6515C17.9272 26.1959 19.2377 26.2694 20.4581 25.8594C21.6784 25.4494 22.7328 24.5814 23.4411 23.4036C24.1494 22.2258 24.4677 20.8113 24.3417 19.4017C24.2157 17.9921 23.6532 16.6748 22.7502 15.6748C22.1745 15.0356 21.4785 14.5462 20.7122 14.2417C19.9458 13.9373 19.1283 13.8254 18.3184 13.9142C17.5085 14.003 16.7264 14.2901 16.0284 14.7551C15.3303 15.22 14.7338 15.8511 14.2816 16.6029C13.8295 17.3548 13.5329 18.2087 13.4134 19.1031C13.2939 19.9976 13.3544 20.9103 13.5905 21.7757C13.8266 22.6411 14.2324 23.4375 14.7787 24.1077C15.3251 24.7779 15.9984 25.3051 16.7502 25.6515ZM12.8607 13.3365C13.6482 12.4615 14.5831 11.7673 15.6121 11.2938C16.6411 10.8202 17.7439 10.5765 18.8577 10.5765C19.9714 10.5765 21.0743 10.8202 22.1032 11.2938C23.1322 11.7673 24.0671 12.4615 24.8547 13.3365C25.6422 14.2115 26.2669 15.2504 26.6931 16.3937C27.1193 17.537 27.3387 18.7623 27.3387 19.9998C27.3387 21.2373 27.1193 22.4627 26.6931 23.606C26.2669 24.7493 25.6422 25.7881 24.8547 26.6632C23.2642 28.4304 21.107 29.4232 18.8577 29.4232C16.6084 29.4232 14.4512 28.4304 12.8607 26.6632C11.2702 24.8959 10.3766 22.4991 10.3766 19.9998C10.3766 17.5006 11.2702 15.1037 12.8607 13.3365ZM29.2197 11.9798C29.4148 11.7753 29.5711 11.5293 29.6791 11.2565C29.7872 10.9836 29.8449 10.6895 29.8488 10.3914C29.8527 10.0933 29.8027 9.79742 29.7019 9.52119C29.601 9.24496 29.4513 8.99402 29.2616 8.78324C29.0719 8.57245 28.8461 8.4061 28.5975 8.29403C28.3488 8.18197 28.0825 8.12646 27.8143 8.13081C27.546 8.13515 27.2813 8.19926 27.0357 8.31933C26.7901 8.4394 26.5688 8.613 26.3847 8.82984C26.0266 9.25155 25.8306 9.81171 25.8382 10.3914C25.8458 10.9711 26.0565 11.5246 26.4254 11.9346C26.7943 12.3445 27.2926 12.5786 27.8143 12.587C28.336 12.5955 28.8401 12.3777 29.2197 11.9798Z" fill="white"/>
</svg>
